<svg width="12" height="12" viewBox="0 0 12 12" fill="none" xmlns="http://www.w3.org/2000/svg">
<path d="M2.68614 12H0.198219V3.98822H2.68614V12ZM1.44084 2.89534C0.645284 2.89534 0 2.23639 0 1.44084C5.69424e-09 1.0587 0.151802 0.692221 0.422012 0.422012C0.692222 0.151802 1.0587 0 1.44084 0C1.82297 0 2.18946 0.151802 2.45967 0.422012C2.72988 0.692221 2.88168 1.0587 2.88168 1.44084C2.88168 2.23639 2.23613 2.89534 1.44084 2.89534ZM11.9976 12H9.51505V8.09993C9.51505 7.17044 9.4963 5.97845 8.22154 5.97845C6.92803 5.97845 6.72981 6.98829 6.72981 8.03296V12H4.24457V3.98822H6.6307V5.08111H6.66552C6.99767 4.45163 7.80903 3.78732 9.01951 3.78732C11.5374 3.78732 12.0003 5.4454 12.0003 7.59902V12H11.9976Z" fill="#313131"/>
</svg>
